<svg width="81" height="24" viewBox="0 0 81 24" fill="none" xmlns="http://www.w3.org/2000/svg">
<path d="M10.15 1.7923H14.02L23.26 23.054H17.98L16.15 18.5494H7.89997L6.12997 23.054H0.969971L10.15 1.7923ZM11.95 7.97861L9.36997 14.5853H14.56L11.95 7.97861Z" fill="#01996D"/>
<path d="M24.8863 0.35083H29.3863V23.054H24.8863V0.35083Z" fill="#01996D"/>
<path d="M32.6793 8.4591H37.1793V23.054H32.6793V8.4591ZM32.3193 3.86441C32.3193 3.14368 32.5693 2.53305 33.0693 2.03254C33.5893 1.51201 34.2093 1.25175 34.9293 1.25175C35.6493 1.25175 36.2593 1.51201 36.7593 2.03254C37.2793 2.53305 37.5393 3.14368 37.5393 3.86441C37.5393 4.58515 37.2793 5.20578 36.7593 5.72631C36.2593 6.22682 35.6493 6.47708 34.9293 6.47708C34.2093 6.47708 33.5893 6.22682 33.0693 5.72631C32.5693 5.20578 32.3193 4.58515 32.3193 3.86441Z" fill="#01996D"/>
<path d="M38.8822 8.4591H43.7422L47.4322 18.3692H47.4922L50.9122 8.4591H55.4422L49.6822 23.054H44.9122L38.8822 8.4591Z" fill="#01996D"/>
<path d="M57.1422 8.4591H61.6422V23.054H57.1422V8.4591ZM56.7822 3.86441C56.7822 3.14368 57.0322 2.53305 57.5322 2.03254C58.0522 1.51201 58.6722 1.25175 59.3922 1.25175C60.1122 1.25175 60.7222 1.51201 61.2222 2.03254C61.7422 2.53305 62.0022 3.14368 62.0022 3.86441C62.0022 4.58515 61.7422 5.20578 61.2222 5.72631C60.7222 6.22682 60.1122 6.47708 59.3922 6.47708C58.6722 6.47708 58.0522 6.22682 57.5322 5.72631C57.0322 5.20578 56.7822 4.58515 56.7822 3.86441Z" fill="#01996D"/>
<path d="M64.3351 15.7565C64.3351 14.5954 64.5451 13.5443 64.9651 12.6033C65.3851 11.6624 65.9551 10.8615 66.6751 10.2009C67.4151 9.52018 68.2751 8.99965 69.2551 8.63928C70.2551 8.27891 71.3151 8.09873 72.4351 8.09873C73.5551 8.09873 74.6051 8.27891 75.5851 8.63928C76.5851 8.99965 77.4451 9.52018 78.1651 10.2009C78.9051 10.8615 79.4851 11.6624 79.9051 12.6033C80.3251 13.5443 80.5351 14.5954 80.5351 15.7565C80.5351 16.9177 80.3251 17.9688 79.9051 18.9097C79.4851 19.8507 78.9051 20.6615 78.1651 21.3422C77.4451 22.0029 76.5851 22.5134 75.5851 22.8738C74.6051 23.2342 73.5551 23.4143 72.4351 23.4143C71.3151 23.4143 70.2551 23.2342 69.2551 22.8738C68.2751 22.5134 67.4151 22.0029 66.6751 21.3422C65.9551 20.6615 65.3851 19.8507 64.9651 18.9097C64.5451 17.9688 64.3351 16.9177 64.3351 15.7565ZM68.8351 15.7565C68.8351 16.8577 69.1451 17.7486 69.7651 18.4293C70.4051 19.11 71.2951 19.4503 72.4351 19.4503C73.5751 19.4503 74.4551 19.11 75.0751 18.4293C75.7151 17.7486 76.0351 16.8577 76.0351 15.7565C76.0351 14.6554 75.7151 13.7645 75.0751 13.0838C74.4551 12.4031 73.5751 12.0628 72.4351 12.0628C71.2951 12.0628 70.4051 12.4031 69.7651 13.0838C69.1451 13.7645 68.8351 14.6554 68.8351 15.7565Z" fill="#01996D"/>
</svg>
